<?xml version="1.0" encoding="UTF-8" standalone="no"?>
<!-- Generator: Adobe Illustrator 15.1.0, SVG Export Plug-In . SVG Version: 6.00 Build 0)  -->

<svg
   xmlns:dc="http://purl.org/dc/elements/1.1/"
   xmlns:cc="http://creativecommons.org/ns#"
   xmlns:rdf="http://www.w3.org/1999/02/22-rdf-syntax-ns#"
   xmlns:svg="http://www.w3.org/2000/svg"
   xmlns="http://www.w3.org/2000/svg"
   xmlns:sodipodi="http://sodipodi.sourceforge.net/DTD/sodipodi-0.dtd"
   xmlns:inkscape="http://www.inkscape.org/namespaces/inkscape"
   version="1.1"
   id="Layer_1"
   x="0px"
   y="0px"
   width="264px"
   height="274px"
   viewBox="0 0 264 274"
   enable-background="new 0 0 264 274"
   xml:space="preserve"
   inkscape:version="0.91 r13725"
   sodipodi:docname="logo3_2.svg"
   inkscape:export-filename="C:\Users\Semyon\Downloads\logo3_2_f.png"
   inkscape:export-xdpi="621"
   inkscape:export-ydpi="621"><metadata
     id="metadata26"><rdf:RDF><cc:Work
         rdf:about=""><dc:format>image/svg+xml</dc:format><dc:type
           rdf:resource="http://purl.org/dc/dcmitype/StillImage" /></cc:Work></rdf:RDF></metadata><defs
     id="defs24" /><sodipodi:namedview
     pagecolor="#ffffff"
     bordercolor="#666666"
     borderopacity="1"
     objecttolerance="10"
     gridtolerance="10"
     guidetolerance="10"
     inkscape:pageopacity="0"
     inkscape:pageshadow="2"
     inkscape:window-width="1600"
     inkscape:window-height="877"
     id="namedview22"
     showgrid="true"
     inkscape:zoom="1.7226277"
     inkscape:cx="128.29543"
     inkscape:cy="98.478215"
     inkscape:window-x="-8"
     inkscape:window-y="-8"
     inkscape:window-maximized="1"
     inkscape:current-layer="Layer_1"
     inkscape:snap-bbox="true"
     inkscape:bbox-paths="true"
     inkscape:snap-intersection-paths="true"
     inkscape:object-nodes="true"
     inkscape:snap-grids="false"
     inkscape:snap-nodes="true"
     inkscape:snap-bbox-edge-midpoints="false"
     inkscape:object-paths="true"><inkscape:grid
       type="xygrid"
       id="grid3354" /></sodipodi:namedview><g
     id="Layer_2"
     transform="matrix(1.1140912,0,0,1.1140912,-12.145275,-11.718332)"><path
       style="fill:#0057e7;stroke:#000000;stroke-width:0.5;stroke-miterlimit:10"
       d="m 20,27.333 46.667,0 51,71.793 50.882,-71.793 49.092,0 -73.141,104.167 0,119.834 -51,0 L 93.25,131.5 20,27.333"
       id="polygon4"
       inkscape:connector-curvature="0"
       sodipodi:nodetypes="cccccccccc" /></g><path
     style="fill:#ffa700;stroke:#000000;stroke-width:0.55704558;stroke-miterlimit:10"
     d="m 86.998561,5.5500813 -51.477698,0 -25.384314,13.1830417 m 0,0 51.991293,0 24.870719,-13.1830417"
     id="polygon7"
     inkscape:connector-curvature="0"
     sodipodi:nodetypes="cccccc" /><path
     style="fill:#ffa700;stroke:#000000;stroke-width:0.55704558;stroke-miterlimit:10"
     d="m 255.79366,5.5500817 -54.03342,0 -26.12655,13.1830413 m 0,0 54.69296,0 25.46701,-13.1830413"
     id="polygon9"
     inkscape:connector-curvature="0"
     sodipodi:nodetypes="cccccc" /><g
     id="Layer_4"
     transform="matrix(1.1140912,0,0,1.1140912,-12.145275,-11.718332)"><path
       style="fill:#008744;stroke:#000000;stroke-width:0.5;stroke-miterlimit:10"
       d="M 88.990773,15.5 132.84618,77.708625 117.667,99.126 l -51,-71.793 z"
       id="polygon12"
       inkscape:connector-curvature="0"
       sodipodi:nodetypes="ccccc" /></g><g
     id="Layer_5"
     transform="matrix(1.1140912,0,0,1.1140912,-12.145275,-11.718332)"><path
       style="fill:#d62d20;stroke:#000000;stroke-width:0.5;stroke-miterlimit:10"
       d="m 240.5,15.5 0,36 -22.859,11.75 -49.078,68.504 L 169,176 l 0,28.5 71.5,-37 0,32.5 -96,51.334 0,-119.834 L 217.641,27.333 240.5,15.5"
       id="polygon15"
       inkscape:connector-curvature="0"
       sodipodi:nodetypes="cccccccccccc" /></g><g
     id="Layer_6"
     transform="matrix(1.1140912,0,0,1.1140912,-12.145275,-11.718332)"><path
       style="fill:#ffa700;stroke:#000000;stroke-width:0.5;stroke-miterlimit:10"
       d="m 240.5,167.5 -43.458,0 -28.05259,14.1368 L 169,204.5 l 71.5,-37"
       id="polygon18"
       inkscape:connector-curvature="0"
       sodipodi:nodetypes="ccccc" /></g><path
     fill="#8C7B9C"
     stroke="#000000"
     stroke-width="0.5"
     stroke-miterlimit="10"
     d="M-88.016,87.57"
     id="path20" /></svg>
