<?xml version="1.0" encoding="utf-8"?>
<!-- Generator: Adobe Illustrator 15.1.0, SVG Export Plug-In . SVG Version: 6.00 Build 0)  -->
<!DOCTYPE svg PUBLIC "-//W3C//DTD SVG 1.1//EN" "http://www.w3.org/Graphics/SVG/1.1/DTD/svg11.dtd">
<svg version="1.1" id="Layer_1" xmlns="http://www.w3.org/2000/svg" xmlns:xlink="http://www.w3.org/1999/xlink" x="0px" y="0px"
	 width="264px" height="274px" viewBox="0 0 264 274" enable-background="new 0 0 264 274" xml:space="preserve">
<g id="Layer_2">
	<polygon fill="#4D7D7D" stroke="#000000" stroke-width="0.5" stroke-miterlimit="10" points="20,27.333 66.667,27.333 
		117.667,99.126 168.549,27.333 217.641,27.333 144.5,131.5 144.5,251.334 93.5,251.334 93.25,131.5 	"/>
</g>
<g id="Layer_3">
	<polygon fill="#DCE6E6" stroke="#000000" stroke-width="0.5" stroke-miterlimit="10" points="41.047,15.5 20,27.333 66.667,27.333 
		87.253,15.5 	"/>
	<polygon fill="#DCE6E6" stroke="#000000" stroke-width="0.5" stroke-miterlimit="10" points="200,9.5 168.549,27.333 
		217.641,27.333 248.5,9.5 	"/>
</g>
<g id="Layer_4">
	<polygon fill="#A8C0C0" stroke="#000000" stroke-width="0.5" stroke-miterlimit="10" points="87.253,15.5 131.64,79.41 
		117.667,99.126 66.667,27.333 	"/>
</g>
<g id="Layer_5">
	<polygon fill="#8C7B9C" stroke="#000000" stroke-width="0.5" stroke-miterlimit="10" points="248.5,45.5 217.641,63.25 
		168.563,131.754 169,176 169,204.5 248.5,161.5 248.5,194 144.5,251.334 144.5,131.5 217.641,27.333 248.5,9.5 	"/>
</g>
<g id="Layer_6">
	<polygon fill="#D1CAD7" stroke="#000000" stroke-width="0.5" stroke-miterlimit="10" points="205.042,161.5 169,181.197 169,204.5 
		248.5,161.5 	"/>
</g>
<path fill="#8C7B9C" stroke="#000000" stroke-width="0.5" stroke-miterlimit="10" d="M-88.016,87.57"/>
</svg>
