<?xml version="1.0" encoding="UTF-8" standalone="no"?>
<!DOCTYPE svg PUBLIC "-//W3C//DTD SVG 1.1//EN"
 "http://www.w3.org/Graphics/SVG/1.1/DTD/svg11.dtd">
<!-- Generated by graphviz version 2.28.0 (20110507.0327)
 -->
<!-- Title: AST Pages: 1 -->
<svg width="560pt" height="1628pt"
 viewBox="0.00 0.00 560.00 1628.00" xmlns="http://www.w3.org/2000/svg" xmlns:xlink="http://www.w3.org/1999/xlink">
<g id="graph1" class="graph" transform="scale(1 1) rotate(0) translate(4 1624)">
<title>AST</title>
<polygon fill="white" stroke="white" points="-4,5 -4,-1624 557,-1624 557,5 -4,5"/>
<!-- 0 -->
<g id="node1" class="node"><title>0</title>
<polygon fill="none" stroke="black" points="163,-972 57,-972 57,-936 163,-936 163,-972"/>
<text text-anchor="middle" x="110" y="-950.3" font-family="Times New Roman,serif" font-size="14.00">n yard_opt_145</text>
</g>
<!-- 20 -->
<g id="node2" class="node"><title>20</title>
<ellipse fill="none" stroke="black" cx="110" cy="-882" rx="44.2946" ry="18"/>
<text text-anchor="middle" x="110" y="-878.3" font-family="Times New Roman,serif" font-size="14.00">prod 578</text>
</g>
<!-- 0&#45;&gt;20 -->
<g id="edge2" class="edge"><title>0&#45;&gt;20</title>
<path fill="none" stroke="black" stroke-width="2" d="M110,-935.697C110,-927.983 110,-918.712 110,-910.112"/>
<polygon fill="black" stroke="black" points="113.5,-910.104 110,-900.104 106.5,-910.104 113.5,-910.104"/>
</g>
<!-- 1 -->
<g id="node4" class="node"><title>1</title>
<polygon fill="none" stroke="black" points="112,-828 6,-828 6,-792 112,-792 112,-828"/>
<text text-anchor="middle" x="59" y="-806.3" font-family="Times New Roman,serif" font-size="14.00">n yard_opt_146</text>
</g>
<!-- 21 -->
<g id="node5" class="node"><title>21</title>
<ellipse fill="none" stroke="black" cx="59" cy="-738" rx="44.2946" ry="18"/>
<text text-anchor="middle" x="59" y="-734.3" font-family="Times New Roman,serif" font-size="14.00">prod 576</text>
</g>
<!-- 1&#45;&gt;21 -->
<g id="edge4" class="edge"><title>1&#45;&gt;21</title>
<path fill="none" stroke="black" stroke-width="2" d="M59,-791.697C59,-783.983 59,-774.712 59,-766.112"/>
<polygon fill="black" stroke="black" points="62.5001,-766.104 59,-756.104 55.5001,-766.104 62.5001,-766.104"/>
</g>
<!-- 2 -->
<g id="node7" class="node"><title>2</title>
<polygon fill="none" stroke="black" points="236,-828 130,-828 130,-792 236,-792 236,-828"/>
<text text-anchor="middle" x="183" y="-806.3" font-family="Times New Roman,serif" font-size="14.00">n yard_opt_147</text>
</g>
<!-- 22 -->
<g id="node8" class="node"><title>22</title>
<ellipse fill="none" stroke="black" cx="183" cy="-738" rx="44.2946" ry="18"/>
<text text-anchor="middle" x="183" y="-734.3" font-family="Times New Roman,serif" font-size="14.00">prod 572</text>
</g>
<!-- 2&#45;&gt;22 -->
<g id="edge6" class="edge"><title>2&#45;&gt;22</title>
<path fill="none" stroke="black" stroke-width="2" d="M183,-791.697C183,-783.983 183,-774.712 183,-766.112"/>
<polygon fill="black" stroke="black" points="186.5,-766.104 183,-756.104 179.5,-766.104 186.5,-766.104"/>
</g>
<!-- 3 -->
<g id="node10" class="node"><title>3</title>
<polygon fill="none" stroke="black" points="106,-252 0,-252 0,-216 106,-216 106,-252"/>
<text text-anchor="middle" x="53" y="-230.3" font-family="Times New Roman,serif" font-size="14.00">n yard_opt_138</text>
</g>
<!-- 23 -->
<g id="node11" class="node"><title>23</title>
<ellipse fill="none" stroke="black" cx="53" cy="-162" rx="44.2946" ry="18"/>
<text text-anchor="middle" x="53" y="-158.3" font-family="Times New Roman,serif" font-size="14.00">prod 598</text>
</g>
<!-- 3&#45;&gt;23 -->
<g id="edge8" class="edge"><title>3&#45;&gt;23</title>
<path fill="none" stroke="black" stroke-width="2" d="M53,-215.697C53,-207.983 53,-198.712 53,-190.112"/>
<polygon fill="black" stroke="black" points="56.5001,-190.104 53,-180.104 49.5001,-190.104 56.5001,-190.104"/>
</g>
<!-- 4 -->
<g id="node13" class="node"><title>4</title>
<polygon fill="none" stroke="black" points="258,-108 152,-108 152,-72 258,-72 258,-108"/>
<text text-anchor="middle" x="205" y="-86.3" font-family="Times New Roman,serif" font-size="14.00">n yard_opt_140</text>
</g>
<!-- 24 -->
<g id="node14" class="node"><title>24</title>
<ellipse fill="none" stroke="black" cx="205" cy="-18" rx="44.2946" ry="18"/>
<text text-anchor="middle" x="205" y="-14.3" font-family="Times New Roman,serif" font-size="14.00">prod 594</text>
</g>
<!-- 4&#45;&gt;24 -->
<g id="edge10" class="edge"><title>4&#45;&gt;24</title>
<path fill="none" stroke="black" stroke-width="2" d="M205,-71.6966C205,-63.9827 205,-54.7125 205,-46.1124"/>
<polygon fill="black" stroke="black" points="208.5,-46.1043 205,-36.1043 201.5,-46.1044 208.5,-46.1043"/>
</g>
<!-- 5 -->
<g id="node16" class="node"><title>5</title>
<polygon fill="none" stroke="black" points="286,-252 124,-252 124,-216 286,-216 286,-252"/>
<text text-anchor="middle" x="205" y="-230.3" font-family="Times New Roman,serif" font-size="14.00">n yard_exp_brackets_266</text>
</g>
<!-- 25 -->
<g id="node17" class="node"><title>25</title>
<ellipse fill="none" stroke="black" cx="205" cy="-162" rx="39.4691" ry="18"/>
<text text-anchor="middle" x="205" y="-158.3" font-family="Times New Roman,serif" font-size="14.00">prod 31</text>
</g>
<!-- 5&#45;&gt;25 -->
<g id="edge12" class="edge"><title>5&#45;&gt;25</title>
<path fill="none" stroke="black" stroke-width="2" d="M205,-215.697C205,-207.983 205,-198.712 205,-190.112"/>
<polygon fill="black" stroke="black" points="208.5,-190.104 205,-180.104 201.5,-190.104 208.5,-190.104"/>
</g>
<!-- 25&#45;&gt;4 -->
<g id="edge14" class="edge"><title>25&#45;&gt;4</title>
<path fill="none" stroke="black" d="M205,-143.697C205,-135.983 205,-126.712 205,-118.112"/>
<polygon fill="black" stroke="black" points="208.5,-118.104 205,-108.104 201.5,-118.104 208.5,-118.104"/>
</g>
<!-- 6 -->
<g id="node20" class="node"><title>6</title>
<polygon fill="none" stroke="black" points="210,-396 48,-396 48,-360 210,-360 210,-396"/>
<text text-anchor="middle" x="129" y="-374.3" font-family="Times New Roman,serif" font-size="14.00">n yard_exp_brackets_194</text>
</g>
<!-- 26 -->
<g id="node21" class="node"><title>26</title>
<ellipse fill="none" stroke="black" cx="129" cy="-306" rx="44.2946" ry="18"/>
<text text-anchor="middle" x="129" y="-302.3" font-family="Times New Roman,serif" font-size="14.00">prod 169</text>
</g>
<!-- 6&#45;&gt;26 -->
<g id="edge16" class="edge"><title>6&#45;&gt;26</title>
<path fill="none" stroke="black" stroke-width="2" d="M129,-359.697C129,-351.983 129,-342.712 129,-334.112"/>
<polygon fill="black" stroke="black" points="132.5,-334.104 129,-324.104 125.5,-334.104 132.5,-334.104"/>
</g>
<!-- 26&#45;&gt;3 -->
<g id="edge18" class="edge"><title>26&#45;&gt;3</title>
<path fill="none" stroke="black" d="M111.754,-289.116C102.098,-280.222 89.8629,-268.953 79.0604,-259.003"/>
<polygon fill="black" stroke="black" points="81.2318,-256.245 71.5051,-252.044 76.4894,-261.393 81.2318,-256.245"/>
</g>
<!-- 26&#45;&gt;5 -->
<g id="edge20" class="edge"><title>26&#45;&gt;5</title>
<path fill="none" stroke="black" d="M146.246,-289.116C155.902,-280.222 168.137,-268.953 178.94,-259.003"/>
<polygon fill="black" stroke="black" points="181.511,-261.393 186.495,-252.044 176.768,-256.245 181.511,-261.393"/>
</g>
<!-- 7 -->
<g id="node25" class="node"><title>7</title>
<polygon fill="red" stroke="black" points="280,-540 166,-540 166,-504 280,-504 280,-540"/>
<text text-anchor="middle" x="223" y="-518.3" font-family="Times New Roman,serif" font-size="14.00">n yard_opt_137 !</text>
</g>
<!-- 27 -->
<g id="node26" class="node"><title>27</title>
<ellipse fill="none" stroke="black" cx="129" cy="-450" rx="44.2946" ry="18"/>
<text text-anchor="middle" x="129" y="-446.3" font-family="Times New Roman,serif" font-size="14.00">prod 591</text>
</g>
<!-- 7&#45;&gt;27 -->
<g id="edge22" class="edge"><title>7&#45;&gt;27</title>
<path fill="none" stroke="black" stroke-width="2" d="M199.764,-503.697C186.978,-494.175 171.007,-482.281 157.475,-472.205"/>
<polygon fill="black" stroke="black" points="159.526,-469.368 149.415,-466.202 155.345,-474.982 159.526,-469.368"/>
</g>
<!-- 28 -->
<g id="node29" class="node"><title>28</title>
<ellipse fill="none" stroke="black" cx="235" cy="-450" rx="44.2946" ry="18"/>
<text text-anchor="middle" x="235" y="-446.3" font-family="Times New Roman,serif" font-size="14.00">prod 592</text>
</g>
<!-- 7&#45;&gt;28 -->
<g id="edge26" class="edge"><title>7&#45;&gt;28</title>
<path fill="none" stroke="black" stroke-width="2" d="M225.966,-503.697C227.289,-495.983 228.878,-486.712 230.352,-478.112"/>
<polygon fill="black" stroke="black" points="233.828,-478.552 232.068,-468.104 226.928,-477.369 233.828,-478.552"/>
</g>
<!-- 27&#45;&gt;6 -->
<g id="edge24" class="edge"><title>27&#45;&gt;6</title>
<path fill="none" stroke="black" d="M129,-431.697C129,-423.983 129,-414.712 129,-406.112"/>
<polygon fill="black" stroke="black" points="132.5,-406.104 129,-396.104 125.5,-406.104 132.5,-406.104"/>
</g>
<!-- 8 -->
<g id="node31" class="node"><title>8</title>
<polygon fill="none" stroke="black" points="408,-540 298,-540 298,-504 408,-504 408,-540"/>
<text text-anchor="middle" x="353" y="-518.3" font-family="Times New Roman,serif" font-size="14.00">n yard_many_26</text>
</g>
<!-- 29 -->
<g id="node32" class="node"><title>29</title>
<ellipse fill="none" stroke="black" cx="353" cy="-450" rx="44.2946" ry="18"/>
<text text-anchor="middle" x="353" y="-446.3" font-family="Times New Roman,serif" font-size="14.00">prod 582</text>
</g>
<!-- 8&#45;&gt;29 -->
<g id="edge28" class="edge"><title>8&#45;&gt;29</title>
<path fill="none" stroke="black" stroke-width="2" d="M353,-503.697C353,-495.983 353,-486.712 353,-478.112"/>
<polygon fill="black" stroke="black" points="356.5,-478.104 353,-468.104 349.5,-478.104 356.5,-478.104"/>
</g>
<!-- 9 -->
<g id="node34" class="node"><title>9</title>
<polygon fill="red" stroke="black" points="407,-684 275,-684 275,-648 407,-648 407,-684"/>
<text text-anchor="middle" x="341" y="-662.3" font-family="Times New Roman,serif" font-size="14.00">n yard_rule_list_39 !</text>
</g>
<!-- 30 -->
<g id="node35" class="node"><title>30</title>
<ellipse fill="none" stroke="black" cx="288" cy="-594" rx="44.2946" ry="18"/>
<text text-anchor="middle" x="288" y="-590.3" font-family="Times New Roman,serif" font-size="14.00">prod 599</text>
</g>
<!-- 9&#45;&gt;30 -->
<g id="edge30" class="edge"><title>9&#45;&gt;30</title>
<path fill="none" stroke="black" stroke-width="2" d="M327.899,-647.697C321.515,-639.265 313.724,-628.975 306.726,-619.732"/>
<polygon fill="black" stroke="black" points="309.412,-617.482 300.585,-611.622 303.831,-621.708 309.412,-617.482"/>
</g>
<!-- 31 -->
<g id="node39" class="node"><title>31</title>
<ellipse fill="none" stroke="black" cx="394" cy="-594" rx="44.2946" ry="18"/>
<text text-anchor="middle" x="394" y="-590.3" font-family="Times New Roman,serif" font-size="14.00">prod 600</text>
</g>
<!-- 9&#45;&gt;31 -->
<g id="edge36" class="edge"><title>9&#45;&gt;31</title>
<path fill="none" stroke="black" stroke-width="2" d="M354.101,-647.697C360.485,-639.265 368.276,-628.975 375.274,-619.732"/>
<polygon fill="black" stroke="black" points="378.169,-621.708 381.415,-611.622 372.588,-617.482 378.169,-621.708"/>
</g>
<!-- 30&#45;&gt;7 -->
<g id="edge32" class="edge"><title>30&#45;&gt;7</title>
<path fill="none" stroke="black" d="M272.924,-576.765C264.875,-568.096 254.802,-557.248 245.815,-547.57"/>
<polygon fill="black" stroke="black" points="248.27,-545.07 238.901,-540.124 243.141,-549.833 248.27,-545.07"/>
</g>
<!-- 30&#45;&gt;8 -->
<g id="edge34" class="edge"><title>30&#45;&gt;8</title>
<path fill="none" stroke="black" d="M303.076,-576.765C311.125,-568.096 321.198,-557.248 330.185,-547.57"/>
<polygon fill="black" stroke="black" points="332.859,-549.833 337.099,-540.124 327.73,-545.07 332.859,-549.833"/>
</g>
<!-- 10 -->
<g id="node41" class="node"><title>10</title>
<polygon fill="none" stroke="black" points="427.25,-828 254.75,-828 254.75,-792 427.25,-792 427.25,-828"/>
<text text-anchor="middle" x="341" y="-806.3" font-family="Times New Roman,serif" font-size="14.00">n yard_rule_comma_list_38</text>
</g>
<!-- 32 -->
<g id="node42" class="node"><title>32</title>
<ellipse fill="none" stroke="black" cx="341" cy="-738" rx="44.2946" ry="18"/>
<text text-anchor="middle" x="341" y="-734.3" font-family="Times New Roman,serif" font-size="14.00">prod 580</text>
</g>
<!-- 10&#45;&gt;32 -->
<g id="edge38" class="edge"><title>10&#45;&gt;32</title>
<path fill="none" stroke="black" stroke-width="2" d="M341,-791.697C341,-783.983 341,-774.712 341,-766.112"/>
<polygon fill="black" stroke="black" points="344.5,-766.104 341,-756.104 337.5,-766.104 344.5,-766.104"/>
</g>
<!-- 32&#45;&gt;9 -->
<g id="edge40" class="edge"><title>32&#45;&gt;9</title>
<path fill="none" stroke="black" d="M341,-719.697C341,-711.983 341,-702.712 341,-694.112"/>
<polygon fill="black" stroke="black" points="344.5,-694.104 341,-684.104 337.5,-694.104 344.5,-694.104"/>
</g>
<!-- 11 -->
<g id="node45" class="node"><title>11</title>
<polygon fill="none" stroke="black" points="552,-828 446,-828 446,-792 552,-792 552,-828"/>
<text text-anchor="middle" x="499" y="-806.3" font-family="Times New Roman,serif" font-size="14.00">n yard_opt_149</text>
</g>
<!-- 33 -->
<g id="node46" class="node"><title>33</title>
<ellipse fill="none" stroke="black" cx="499" cy="-738" rx="44.2946" ry="18"/>
<text text-anchor="middle" x="499" y="-734.3" font-family="Times New Roman,serif" font-size="14.00">prod 570</text>
</g>
<!-- 11&#45;&gt;33 -->
<g id="edge42" class="edge"><title>11&#45;&gt;33</title>
<path fill="none" stroke="black" stroke-width="2" d="M499,-791.697C499,-783.983 499,-774.712 499,-766.112"/>
<polygon fill="black" stroke="black" points="502.5,-766.104 499,-756.104 495.5,-766.104 502.5,-766.104"/>
</g>
<!-- 12 -->
<g id="node48" class="node"><title>12</title>
<polygon fill="none" stroke="black" points="343,-972 181,-972 181,-936 343,-936 343,-972"/>
<text text-anchor="middle" x="262" y="-950.3" font-family="Times New Roman,serif" font-size="14.00">n yard_exp_brackets_198</text>
</g>
<!-- 34 -->
<g id="node49" class="node"><title>34</title>
<ellipse fill="none" stroke="black" cx="262" cy="-882" rx="44.2946" ry="18"/>
<text text-anchor="middle" x="262" y="-878.3" font-family="Times New Roman,serif" font-size="14.00">prod 165</text>
</g>
<!-- 12&#45;&gt;34 -->
<g id="edge44" class="edge"><title>12&#45;&gt;34</title>
<path fill="none" stroke="black" stroke-width="2" d="M262,-935.697C262,-927.983 262,-918.712 262,-910.112"/>
<polygon fill="black" stroke="black" points="265.5,-910.104 262,-900.104 258.5,-910.104 265.5,-910.104"/>
</g>
<!-- 34&#45;&gt;1 -->
<g id="edge46" class="edge"><title>34&#45;&gt;1</title>
<path fill="none" stroke="black" d="M229.385,-869.753C199.446,-859.429 154.367,-843.885 118.096,-831.378"/>
<polygon fill="black" stroke="black" points="119.195,-828.055 108.601,-828.104 116.913,-834.672 119.195,-828.055"/>
</g>
<!-- 34&#45;&gt;2 -->
<g id="edge48" class="edge"><title>34&#45;&gt;2</title>
<path fill="none" stroke="black" d="M244.467,-865.465C234.347,-856.498 221.407,-845.031 210.012,-834.935"/>
<polygon fill="black" stroke="black" points="212.229,-832.223 202.424,-828.211 207.587,-837.462 212.229,-832.223"/>
</g>
<!-- 34&#45;&gt;10 -->
<g id="edge50" class="edge"><title>34&#45;&gt;10</title>
<path fill="none" stroke="black" d="M279.533,-865.465C289.653,-856.498 302.593,-845.031 313.988,-834.935"/>
<polygon fill="black" stroke="black" points="316.413,-837.462 321.576,-828.211 311.771,-832.223 316.413,-837.462"/>
</g>
<!-- 34&#45;&gt;11 -->
<g id="edge52" class="edge"><title>34&#45;&gt;11</title>
<path fill="none" stroke="black" d="M296.716,-870.746C333.25,-859.956 391.537,-842.74 436.179,-829.555"/>
<polygon fill="black" stroke="black" points="437.173,-832.911 445.772,-826.721 435.19,-826.197 437.173,-832.911"/>
</g>
<!-- 13 -->
<g id="node55" class="node"><title>13</title>
<polygon fill="none" stroke="black" points="237.25,-1116 134.75,-1116 134.75,-1080 237.25,-1080 237.25,-1116"/>
<text text-anchor="middle" x="186" y="-1094.3" font-family="Times New Roman,serif" font-size="14.00">n execute_proc</text>
</g>
<!-- 35 -->
<g id="node56" class="node"><title>35</title>
<ellipse fill="none" stroke="black" cx="186" cy="-1026" rx="44.2946" ry="18"/>
<text text-anchor="middle" x="186" y="-1022.3" font-family="Times New Roman,serif" font-size="14.00">prod 579</text>
</g>
<!-- 13&#45;&gt;35 -->
<g id="edge54" class="edge"><title>13&#45;&gt;35</title>
<path fill="none" stroke="black" stroke-width="2" d="M186,-1079.7C186,-1071.98 186,-1062.71 186,-1054.11"/>
<polygon fill="black" stroke="black" points="189.5,-1054.1 186,-1044.1 182.5,-1054.1 189.5,-1054.1"/>
</g>
<!-- 35&#45;&gt;0 -->
<g id="edge56" class="edge"><title>35&#45;&gt;0</title>
<path fill="none" stroke="black" d="M168.754,-1009.12C159.098,-1000.22 146.863,-988.953 136.06,-979.003"/>
<polygon fill="black" stroke="black" points="138.232,-976.245 128.505,-972.044 133.489,-981.393 138.232,-976.245"/>
</g>
<!-- 35&#45;&gt;12 -->
<g id="edge58" class="edge"><title>35&#45;&gt;12</title>
<path fill="none" stroke="black" d="M203.246,-1009.12C212.902,-1000.22 225.137,-988.953 235.94,-979.003"/>
<polygon fill="black" stroke="black" points="238.511,-981.393 243.495,-972.044 233.768,-976.245 238.511,-981.393"/>
</g>
<!-- 14 -->
<g id="node60" class="node"><title>14</title>
<polygon fill="none" stroke="black" points="239.25,-1260 132.75,-1260 132.75,-1224 239.25,-1224 239.25,-1260"/>
<text text-anchor="middle" x="186" y="-1238.3" font-family="Times New Roman,serif" font-size="14.00">n execute_stmnt</text>
</g>
<!-- 36 -->
<g id="node61" class="node"><title>36</title>
<ellipse fill="none" stroke="black" cx="186" cy="-1170" rx="44.2946" ry="18"/>
<text text-anchor="middle" x="186" y="-1166.3" font-family="Times New Roman,serif" font-size="14.00">prod 603</text>
</g>
<!-- 14&#45;&gt;36 -->
<g id="edge60" class="edge"><title>14&#45;&gt;36</title>
<path fill="none" stroke="black" stroke-width="2" d="M186,-1223.7C186,-1215.98 186,-1206.71 186,-1198.11"/>
<polygon fill="black" stroke="black" points="189.5,-1198.1 186,-1188.1 182.5,-1198.1 189.5,-1198.1"/>
</g>
<!-- 36&#45;&gt;13 -->
<g id="edge62" class="edge"><title>36&#45;&gt;13</title>
<path fill="none" stroke="black" d="M186,-1151.7C186,-1143.98 186,-1134.71 186,-1126.11"/>
<polygon fill="black" stroke="black" points="189.5,-1126.1 186,-1116.1 182.5,-1126.1 189.5,-1126.1"/>
</g>
<!-- 15 -->
<g id="node64" class="node"><title>15</title>
<polygon fill="none" stroke="black" points="250,-1404 122,-1404 122,-1368 250,-1368 250,-1404"/>
<text text-anchor="middle" x="186" y="-1382.3" font-family="Times New Roman,serif" font-size="14.00">n proc_body_stmnt</text>
</g>
<!-- 37 -->
<g id="node65" class="node"><title>37</title>
<ellipse fill="none" stroke="black" cx="186" cy="-1314" rx="44.2946" ry="18"/>
<text text-anchor="middle" x="186" y="-1310.3" font-family="Times New Roman,serif" font-size="14.00">prod 998</text>
</g>
<!-- 15&#45;&gt;37 -->
<g id="edge64" class="edge"><title>15&#45;&gt;37</title>
<path fill="none" stroke="black" stroke-width="2" d="M186,-1367.7C186,-1359.98 186,-1350.71 186,-1342.11"/>
<polygon fill="black" stroke="black" points="189.5,-1342.1 186,-1332.1 182.5,-1342.1 189.5,-1342.1"/>
</g>
<!-- 37&#45;&gt;14 -->
<g id="edge66" class="edge"><title>37&#45;&gt;14</title>
<path fill="none" stroke="black" d="M186,-1295.7C186,-1287.98 186,-1278.71 186,-1270.11"/>
<polygon fill="black" stroke="black" points="189.5,-1270.1 186,-1260.1 182.5,-1270.1 189.5,-1270.1"/>
</g>
<!-- 16 -->
<g id="node68" class="node"><title>16</title>
<polygon fill="none" stroke="black" points="367.25,-1404 268.75,-1404 268.75,-1368 367.25,-1368 367.25,-1404"/>
<text text-anchor="middle" x="318" y="-1382.3" font-family="Times New Roman,serif" font-size="14.00">n yard_opt_20</text>
</g>
<!-- 38 -->
<g id="node69" class="node"><title>38</title>
<ellipse fill="none" stroke="black" cx="318" cy="-1314" rx="48.1437" ry="18"/>
<text text-anchor="middle" x="318" y="-1310.3" font-family="Times New Roman,serif" font-size="14.00">prod 1017</text>
</g>
<!-- 16&#45;&gt;38 -->
<g id="edge68" class="edge"><title>16&#45;&gt;38</title>
<path fill="none" stroke="black" stroke-width="2" d="M318,-1367.7C318,-1359.98 318,-1350.71 318,-1342.11"/>
<polygon fill="black" stroke="black" points="321.5,-1342.1 318,-1332.1 314.5,-1342.1 321.5,-1342.1"/>
</g>
<!-- 17 -->
<g id="node71" class="node"><title>17</title>
<polygon fill="none" stroke="black" points="329.25,-1548 174.75,-1548 174.75,-1512 329.25,-1512 329.25,-1548"/>
<text text-anchor="middle" x="252" y="-1526.3" font-family="Times New Roman,serif" font-size="14.00">n yard_exp_brackets_65</text>
</g>
<!-- 39 -->
<g id="node72" class="node"><title>39</title>
<ellipse fill="none" stroke="black" cx="252" cy="-1458" rx="44.2946" ry="18"/>
<text text-anchor="middle" x="252" y="-1454.3" font-family="Times New Roman,serif" font-size="14.00">prod 405</text>
</g>
<!-- 17&#45;&gt;39 -->
<g id="edge70" class="edge"><title>17&#45;&gt;39</title>
<path fill="none" stroke="black" stroke-width="2" d="M252,-1511.7C252,-1503.98 252,-1494.71 252,-1486.11"/>
<polygon fill="black" stroke="black" points="255.5,-1486.1 252,-1476.1 248.5,-1486.1 255.5,-1486.1"/>
</g>
<!-- 39&#45;&gt;15 -->
<g id="edge72" class="edge"><title>39&#45;&gt;15</title>
<path fill="none" stroke="black" d="M236.692,-1440.76C228.519,-1432.1 218.291,-1421.25 209.166,-1411.57"/>
<polygon fill="black" stroke="black" points="211.552,-1409 202.145,-1404.12 206.459,-1413.8 211.552,-1409"/>
</g>
<!-- 39&#45;&gt;16 -->
<g id="edge74" class="edge"><title>39&#45;&gt;16</title>
<path fill="none" stroke="black" d="M267.308,-1440.76C275.481,-1432.1 285.709,-1421.25 294.834,-1411.57"/>
<polygon fill="black" stroke="black" points="297.541,-1413.8 301.855,-1404.12 292.448,-1409 297.541,-1413.8"/>
</g>
<!-- 18 -->
<g id="node76" class="node"><title>18</title>
<polygon fill="red" stroke="black" points="156,-1548 44,-1548 44,-1512 156,-1512 156,-1548"/>
<text text-anchor="middle" x="100" y="-1526.3" font-family="Times New Roman,serif" font-size="14.00">n yard_many_4 !</text>
</g>
<!-- 40 -->
<g id="node77" class="node"><title>40</title>
<ellipse fill="none" stroke="black" cx="100" cy="-1602" rx="48.1437" ry="18"/>
<text text-anchor="middle" x="100" y="-1598.3" font-family="Times New Roman,serif" font-size="14.00">prod 1014</text>
</g>
<!-- 18&#45;&gt;40 -->
<g id="edge76" class="edge"><title>18&#45;&gt;40</title>
<path fill="none" stroke="black" stroke-width="2" d="M105.913,-1548.28C106.715,-1556.03 106.94,-1565.36 106.591,-1574.01"/>
<polygon fill="black" stroke="black" points="103.094,-1573.83 105.878,-1584.05 110.077,-1574.33 103.094,-1573.83"/>
</g>
<!-- 41 -->
<g id="node81" class="node"><title>41</title>
<ellipse fill="none" stroke="black" cx="100" cy="-1458" rx="48.1437" ry="18"/>
<text text-anchor="middle" x="100" y="-1454.3" font-family="Times New Roman,serif" font-size="14.00">prod 1015</text>
</g>
<!-- 18&#45;&gt;41 -->
<g id="edge82" class="edge"><title>18&#45;&gt;41</title>
<path fill="none" stroke="black" stroke-width="2" d="M100,-1511.7C100,-1503.98 100,-1494.71 100,-1486.11"/>
<polygon fill="black" stroke="black" points="103.5,-1486.1 100,-1476.1 96.5001,-1486.1 103.5,-1486.1"/>
</g>
<!-- 40&#45;&gt;17 -->
<g id="edge78" class="edge"><title>40&#45;&gt;17</title>
<path fill="none" stroke="black" d="M129.307,-1587.5C150.955,-1577.53 180.856,-1563.76 205.72,-1552.31"/>
<polygon fill="black" stroke="black" points="207.356,-1555.41 214.975,-1548.05 204.427,-1549.06 207.356,-1555.41"/>
</g>
<!-- 40&#45;&gt;18 -->
<g id="edge80" class="edge"><title>40&#45;&gt;18</title>
<path fill="none" stroke="black" d="M94.1218,-1584.05C93.3037,-1576.35 93.0614,-1567.03 93.3949,-1558.36"/>
<polygon fill="black" stroke="black" points="96.8943,-1558.49 94.0872,-1548.28 89.9107,-1558.01 96.8943,-1558.49"/>
</g>
</g>
</svg>
